<svg xmlns="http://www.w3.org/2000/svg" viewBox="0 0 800 560" fill="none">
  <g stroke="#E8C7AC" stroke-width="4" stroke-linecap="round" stroke-linejoin="round">
    <ellipse cx="400" cy="290" rx="105" ry="22"/>
    <path d="M400 312V435"/>
    <path d="M350 435h100"/>

    <path d="M335 248h34v26c0 10-8 18-17 18s-17-8-17-18v-26Z"/>
    <path d="M369 254c12 0 18 8 18 16 0 9-7 15-17 15"/>
    <path d="M348 224c10 12 7 24-2 32"/>
    <path d="M360 218c10 12 7 24-2 32"/>
    <path d="M431 248h34v26c0 10-8 18-17 18s-17-8-17-18v-26Z"/>
    <path d="M465 254c12 0 18 8 18 16 0 9-7 15-17 15"/>
    <path d="M444 224c10 12 7 24-2 32"/>
    <path d="M456 218c10 12 7 24-2 32"/>
    <ellipse cx="352" cy="300" rx="34" ry="6"/>
    <ellipse cx="448" cy="300" rx="34" ry="6"/>

    <path d="M155 250c-22 0-38 16-38 38v134"/>
    <path d="M155 250c22 0 38 16 38 38v134"/>
    <path d="M128 444l-6 86"/>
    <path d="M192 444l6 86"/>
    <path d="M112 412h96"/>
    <path d="M108 412c0-26 20-46 47-46h10c27 0 47 20 47 46"/>

    <path d="M645 250c-22 0-38 16-38 38v134"/>
    <path d="M645 250c22 0 38 16 38 38v134"/>
    <path d="M618 444l-6 86"/>
    <path d="M682 444l6 86"/>
    <path d="M602 412h96"/>
    <path d="M598 412c0-26 20-46 47-46h10c27 0 47 20 47 46"/>

    <circle cx="256" cy="122" r="28"/>
    <path d="M232 110c10-18 42-24 60-8 10 8 10 20 0 29-9 8-13 18-16 25"/>
    <path d="M222 176c-16 16-28 42-34 73l-8 34"/>
    <path d="M282 176c28 16 42 38 48 74l8 46"/>
    <path d="M180 283c20 18 50 16 71 4"/>
    <path d="M248 288c8 10 32 10 43 0"/>
    <path d="M180 283c10 52 18 91 30 129"/>
    <path d="M210 412c-6 44-16 82-30 118"/>
    <path d="M290 286c7 36 17 83 20 122"/>
    <path d="M308 408c10 46 10 84 0 122"/>
    <path d="M187 530c24 10 48 6 64-10"/>
    <path d="M284 530c24 8 45 4 62-12"/>
    <path d="M194 287c18 6 40 6 57 0"/>
    <path d="M252 287c16 20 26 48 30 88"/>
    <path d="M282 375c-20 22-42 40-64 57"/>
    <path d="M218 432c-10 35-16 68-18 98"/>
    <path d="M282 375c18 28 28 57 30 92"/>
    <path d="M312 467c10 22 18 42 26 63"/>

    <circle cx="544" cy="122" r="28"/>
    <path d="M570 112c-8-18-40-24-58-8-10 8-10 20 0 29 9 8 13 18 16 25"/>
    <path d="M578 176c16 16 28 42 34 73l8 34"/>
    <path d="M518 176c-28 16-42 38-48 74l-8 46"/>
    <path d="M620 283c-20 18-50 16-71 4"/>
    <path d="M552 288c-8 10-32 10-43 0"/>
    <path d="M620 283c-10 52-18 91-30 129"/>
    <path d="M590 412c6 44 16 82 30 118"/>
    <path d="M510 286c-7 36-17 83-20 122"/>
    <path d="M492 408c-10 46-10 84 0 122"/>
    <path d="M549 530c-24 10-48 6-64-10"/>
    <path d="M452 530c-24 8-45 4-62-12"/>
    <path d="M606 287c-18 6-40 6-57 0"/>
    <path d="M548 287c-16 20-26 48-30 88"/>
    <path d="M518 375c20 22 42 40 64 57"/>
    <path d="M582 432c10 35 16 68 18 98"/>
    <path d="M518 375c-18 28-28 57-30 92"/>
    <path d="M488 467c-10 22-18 42-26 63"/>

    <path d="M352 435c18 22 34 30 48 24"/>
    <path d="M448 435c-18 22-34 30-48 24"/>
  </g>
</svg>
