<svg xmlns="http://www.w3.org/2000/svg" viewBox="0 0 1257 1046" fill="none">
<g stroke="currentColor" stroke-width="3.5" stroke-linecap="round" stroke-linejoin="round">
<path d="M 572 965 L 592 964 L 601 972 L 638 972 L 645 964 L 675 965 L 667 975 L 621 998 L 578 973"/><path d="M 572 964 L 577 973 L 620 998 L 668 975 L 675 965 L 644 964 L 638 972 L 601 972 L 593 964"/><path d="M 765 928 L 763 962 L 768 975 L 768 1006 L 747 1019 L 711 1026 L 627 1026 L 623 1022 L 626 1006 L 673 983 L 688 963 L 708 951 L 718 922"/><path d="M 765 927 L 717 922 L 708 950 L 687 963 L 672 983 L 627 1005 L 624 1024 L 711 1026 L 748 1019 L 766 1009 L 768 975 L 763 962"/><path d="M 479 927 L 526 919 L 537 949 L 558 962 L 571 980 L 614 1005 L 614 1020 L 535 1024 L 488 1014 L 476 1003"/><path d="M 479 926 L 476 1003 L 487 1014 L 535 1024 L 614 1021 L 615 1005 L 572 980 L 559 962 L 536 947 L 527 919"/><path d="M 421 855 L 427 860 L 427 875 L 444 914 L 470 927 L 466 968 L 430 966 L 399 955 L 399 941 L 420 880 L 418 858"/><path d="M 420 855 L 420 880 L 399 941 L 399 955 L 430 966 L 467 968 L 470 927 L 443 912 L 427 875 L 427 859"/><path d="M 822 851 L 826 903 L 845 941 L 845 956 L 825 966 L 777 970 L 772 959 L 774 928 L 792 926 L 800 918 L 815 879 L 815 861 L 820 851 L 815 861 L 815 879 L 802 914 L 791 926 L 774 928 L 772 959 L 776 970 L 825 966 L 845 957 L 845 940 L 826 903"/><path d="M 888 751 L 912 755 L 909 1005 L 891 1008 L 886 1003"/><path d="M 337 751 L 358 752 L 354 1008 L 339 1008 L 335 1004"/><path d="M 887 751 L 886 1003 L 891 1008 L 909 1006 L 912 755"/><path d="M 336 751 L 335 1004 L 338 1008 L 355 1008 L 358 751"/><path d="M 1132 739 L 1134 743 L 1159 950 L 1156 971 L 1142 971 L 1136 962 L 1113 747 L 1114 742"/><path d="M 1113 742 L 1136 962 L 1142 971 L 1157 971 L 1159 950 L 1133 739"/><path d="M 113 738 L 132 742 L 134 747 L 111 957 L 103 971 L 92 971 L 89 966 L 88 942"/><path d="M 113 738 L 88 942 L 89 966 L 92 971 L 104 971 L 111 957 L 134 747 L 132 742"/><path d="M 108 707 L 164 716 L 204 713 L 385 719 L 389 726 L 375 740 L 365 742 L 229 742 L 137 734 L 113 729 L 110 725"/><path d="M 108 706 L 112 729 L 137 734 L 229 742 L 365 742 L 377 739 L 389 727 L 386 719 L 204 713 L 164 716"/><path d="M 1135 705 L 1133 727 L 1128 730 L 1018 742 L 881 742 L 858 727 L 862 719 L 1101 714"/><path d="M 1135 704 L 1101 714 L 861 719 L 858 728 L 880 742 L 1018 742 L 1108 734 L 1132 729"/><path d="M 192 703 L 168 685 L 127 692 L 118 697 L 128 692 L 167 685"/><path d="M 603 586 L 635 587 L 635 961 L 632 963 L 605 963 L 599 957"/><path d="M 602 586 L 599 958 L 605 963 L 632 963 L 635 961 L 635 586"/><path d="M 333 598 L 366 584 L 497 621 L 519 630 L 535 646 L 539 654 L 539 691 L 517 776 L 506 757 L 484 672 L 461 646 L 341 605"/><path d="M 333 597 L 338 604 L 460 646 L 485 675 L 506 757 L 517 777 L 539 691 L 539 653 L 535 645 L 520 630 L 497 621 L 366 584"/><path d="M 910 595 L 879 583 L 726 628 L 700 650 L 698 695 L 721 794 L 698 695 L 700 651 L 729 627 L 879 583 L 908 594 L 913 599 L 906 605 L 796 640 L 760 670 L 723 794 L 762 668 L 796 640 L 909 604 L 913 600"/><path d="M 876 551 L 873 576 L 721 620 L 691 645 L 688 692 L 709 792 L 717 803 L 717 831 L 701 885 L 701 905 L 709 918 L 700 944 L 683 955 L 646 955 L 644 587 L 785 578 L 842 565"/><path d="M 876 551 L 842 565 L 785 578 L 644 586 L 644 954 L 686 954 L 700 945 L 709 918 L 701 905 L 701 885 L 717 831 L 717 803 L 709 792 L 688 692 L 691 646 L 724 619 L 873 576"/><path d="M 368 549 L 391 561 L 442 575 L 592 587 L 588 955 L 564 955 L 544 941 L 536 917 L 543 905 L 543 880 L 524 817 L 522 788 L 548 694 L 548 650 L 544 642 L 525 622 L 506 614 L 369 576"/><path d="M 367 549 L 369 576 L 506 614 L 524 622 L 543 641 L 548 651 L 548 694 L 522 787 L 524 817 L 543 880 L 543 905 L 536 917 L 547 945 L 563 955 L 588 955 L 592 586 L 442 575 L 394 562"/><path d="M 397 514 L 416 500 L 457 496 L 467 506 L 509 514 L 565 511 L 591 498 L 593 491 L 584 490 L 561 502 L 514 505 L 475 498 L 467 491 L 485 485 L 504 495 L 546 495 L 561 486 L 570 466 L 689 466 L 704 490 L 743 500 L 738 505 L 705 505 L 678 494 L 673 496 L 674 503 L 702 514 L 743 514 L 751 506 L 757 509 L 783 509 L 798 499 L 846 507 L 851 511 L 828 527 L 773 539 L 598 547 L 442 534 L 404 522"/><path d="M 397 515 L 404 522 L 442 534 L 598 547 L 773 539 L 831 526 L 851 510 L 797 499 L 783 509 L 757 509 L 750 506 L 742 514 L 702 514 L 675 503 L 672 498 L 678 494 L 705 505 L 739 505 L 743 499 L 705 490 L 690 466 L 569 466 L 561 485 L 546 495 L 504 495 L 486 485 L 467 491 L 471 497 L 512 505 L 562 502 L 587 489 L 593 492 L 590 498 L 564 511 L 509 514 L 468 506 L 458 496 L 413 501 L 398 511"/><path d="M 148 562 L 167 447 L 173 452 L 204 555 L 227 572 L 263 570 L 361 533 L 387 518 L 398 530 L 440 543 L 580 557 L 770 549 L 834 535 L 857 519 L 863 518 L 872 521 L 881 530 L 981 567 L 1031 572 L 1049 556 L 1071 470 L 1076 461 L 1072 466 L 1049 556 L 1030 572 L 981 567 L 881 530 L 873 521 L 863 518 L 856 519 L 833 535 L 770 549 L 582 557 L 445 544 L 401 531 L 387 518 L 361 533 L 263 570 L 228 572 L 203 552 L 174 455 L 168 446 L 149 550 L 146 611 L 151 643 L 169 675 L 206 704 L 391 710 L 399 726 L 422 804 L 425 842 L 436 856 L 439 880 L 451 907 L 474 917 L 528 910 L 534 901 L 534 883 L 515 820 L 513 789 L 498 763 L 476 677 L 456 654 L 336 613 L 324 602 L 261 602 L 176 636 L 172 636 L 169 630 L 262 592 L 325 592 L 358 575 L 358 540 L 361 537 L 367 537 L 396 553 L 445 566 L 594 577 L 642 577 L 782 569 L 840 556 L 880 539 L 886 545 L 884 574 L 913 586 L 920 594 L 948 590 L 985 592 L 1061 624 L 1065 628 L 1059 634 L 986 602 L 950 599 L 921 604 L 911 613 L 799 649 L 768 675 L 727 806 L 727 830 L 711 883 L 711 906 L 716 912 L 768 918 L 788 917 L 793 911 L 805 881 L 805 860 L 819 838 L 837 743 L 856 710 L 1038 704 L 1073 674 L 1093 631 L 1093 541 L 1078 460 L 1093 541 L 1093 631 L 1073 673 L 1033 705 L 855 710 L 837 743 L 820 834 L 805 860 L 805 880 L 795 906 L 787 917 L 768 918 L 717 912 L 711 905 L 711 883 L 727 830 L 727 807 L 768 676 L 802 648 L 914 612 L 922 604 L 950 599 L 986 602 L 1059 634 L 1064 632 L 1064 626 L 985 592 L 948 590 L 923 595 L 917 588 L 884 573 L 886 544 L 880 539 L 840 556 L 782 569 L 642 577 L 594 577 L 445 566 L 399 554 L 368 537 L 360 537 L 358 574 L 324 592 L 262 592 L 169 630 L 171 636 L 177 636 L 261 602 L 323 602 L 333 612 L 455 654 L 476 677 L 498 763 L 513 789 L 515 820 L 534 883 L 534 901 L 527 910 L 474 917 L 450 905 L 437 875 L 436 855 L 425 842 L 423 808 L 393 711 L 207 704 L 169 674 L 151 643 L 146 611"/><path d="M 778 397 L 784 403 L 786 413 L 769 418 L 760 441 L 770 480 L 752 492 L 711 482 L 697 459 L 692 409 L 700 402"/><path d="M 779 397 L 699 402 L 693 407 L 697 459 L 709 481 L 750 492 L 770 481 L 760 442 L 769 419 L 786 414 L 784 402"/><path d="M 478 397 L 484 394 L 563 405 L 566 431 L 561 462 L 551 481 L 542 486 L 507 486 L 491 477 L 503 456 L 501 432 L 490 412 L 474 408"/><path d="M 477 397 L 474 408 L 488 411 L 501 432 L 503 455 L 491 478 L 506 486 L 543 486 L 552 481 L 561 462 L 566 431 L 563 404 L 484 394"/><path d="M 1161 375 L 1181 392 L 1187 404 L 1189 458 L 1159 570 L 1137 689 L 1134 693 L 1120 686 L 1119 678 L 1139 563 L 1174 426 L 1168 403 L 1148 388 L 1099 394 L 1098 397 L 1101 402 L 1144 397 L 1160 409 L 1164 421 L 1130 561 L 1110 680 L 1108 683 L 1080 685 L 1082 692 L 1111 692 L 1121 697 L 1102 704 L 1054 704 L 1081 679 L 1102 634 L 1102 538 L 1084 449 L 1091 377 L 1118 370"/><path d="M 1161 375 L 1118 370 L 1091 376 L 1084 450 L 1102 538 L 1102 633 L 1081 678 L 1052 705 L 1102 704 L 1121 698 L 1111 692 L 1083 692 L 1080 686 L 1083 683 L 1109 683 L 1130 561 L 1164 421 L 1160 408 L 1145 397 L 1102 402 L 1098 397 L 1106 392 L 1147 388 L 1169 405 L 1174 426 L 1139 563 L 1119 686 L 1136 693 L 1159 570 L 1189 458 L 1187 404 L 1181 391"/><path d="M 706 310 L 711 315 L 709 334 L 721 348 L 721 370 L 713 378 L 707 375 L 712 367 L 712 350 L 699 335 L 701 315"/><path d="M 493 310 L 498 314 L 493 331 L 506 350 L 498 375 L 491 372 L 496 350 L 483 332 L 488 315"/><path d="M 706 310 L 701 315 L 699 336 L 712 351 L 712 366 L 707 371 L 707 376 L 714 378 L 721 371 L 721 347 L 709 333 L 711 315"/><path d="M 493 310 L 489 312 L 483 332 L 496 351 L 491 373 L 499 375 L 506 350 L 493 330 L 498 316"/><path d="M 172 344 L 185 321 L 219 287 L 230 283 L 235 284 L 259 306 L 293 319 L 317 317 L 327 307 L 333 284 L 366 294 L 383 313 L 414 416 L 412 429 L 391 450 L 379 452 L 386 406 L 373 349 L 367 345 L 363 350 L 376 404 L 369 454 L 277 480 L 258 414 L 256 374 L 254 370 L 249 369 L 246 373 L 249 416 L 268 485 L 277 490 L 396 458 L 420 435 L 422 425 L 430 422 L 464 418 L 485 421 L 487 428 L 468 430 L 465 437 L 490 437 L 493 454 L 480 476 L 454 487 L 410 492 L 385 509 L 340 531 L 260 561 L 231 563 L 211 546 L 181 446 L 170 435 L 165 372"/><path d="M 172 344 L 165 372 L 170 436 L 181 447 L 212 549 L 230 563 L 260 561 L 353 526 L 413 491 L 457 486 L 481 476 L 493 454 L 492 438 L 468 439 L 465 436 L 468 430 L 488 428 L 484 420 L 464 418 L 423 423 L 420 434 L 396 458 L 277 490 L 267 483 L 249 416 L 246 378 L 249 369 L 256 374 L 258 414 L 276 480 L 369 455 L 376 404 L 363 350 L 367 345 L 373 349 L 386 406 L 379 453 L 393 449 L 412 430 L 414 416 L 383 313 L 366 294 L 332 284 L 328 304 L 316 317 L 293 319 L 260 306 L 236 284 L 230 283 L 218 287 L 185 320"/><path d="M 744 273 L 748 279 L 738 293 L 737 310 L 753 335 L 753 357 L 743 372 L 736 375 L 734 369 L 744 354 L 744 337 L 728 313 L 728 293 L 739 276"/><path d="M 739 275 L 728 293 L 729 316 L 744 338 L 744 353 L 734 368 L 735 375 L 741 375 L 753 357 L 753 334 L 737 310 L 737 296 L 748 280 L 747 274"/><path d="M 532 268 L 535 274 L 522 291 L 522 310 L 538 337 L 535 361 L 522 373 L 518 367 L 526 359 L 528 336 L 513 312 L 512 291 L 525 272"/><path d="M 533 268 L 525 271 L 512 291 L 513 313 L 528 337 L 526 358 L 518 366 L 518 371 L 522 373 L 535 362 L 538 337 L 522 309 L 522 292 L 535 274"/><path d="M 1011 70 L 1026 72 L 1040 89 L 1042 113 L 1038 122 L 1024 132 L 1013 130 L 997 80 L 998 76"/><path d="M 1011 70 L 997 76 L 1014 132 L 1025 132 L 1038 123 L 1042 113 L 1040 88 L 1027 72"/><path d="M 856 71 L 879 63 L 941 59 L 985 76 L 1005 134 L 990 184 L 971 203 L 966 201 L 963 196 L 972 174 L 972 155 L 959 138 L 916 145 L 905 139 L 872 106 L 845 103 L 841 99 L 841 86"/><path d="M 258 59 L 285 68 L 265 89 L 260 102 L 262 124 L 266 128 L 271 126 L 269 104 L 273 95 L 296 72 L 327 69 L 351 76 L 370 87 L 390 114 L 387 164 L 395 194 L 378 215 L 373 237 L 369 242 L 335 241 L 323 256 L 324 279 L 319 301 L 308 309 L 295 310 L 269 300 L 241 277 L 263 251 L 268 219 L 282 208 L 274 187 L 274 166 L 281 159 L 291 158 L 308 168 L 313 167 L 338 142 L 381 125 L 383 118 L 377 116 L 331 135 L 309 157 L 292 148 L 275 151 L 265 161 L 265 189 L 271 204 L 263 209 L 241 189 L 231 150 L 217 138 L 213 125 L 220 84 L 238 66"/><path d="M 855 71 L 841 85 L 843 102 L 871 106 L 904 139 L 916 145 L 957 137 L 972 155 L 972 174 L 963 199 L 972 203 L 989 186 L 1005 134 L 987 77 L 941 59 L 871 64"/><path d="M 258 59 L 237 66 L 220 83 L 213 125 L 217 139 L 232 153 L 241 190 L 263 210 L 271 205 L 265 189 L 265 162 L 276 151 L 292 148 L 310 157 L 333 134 L 377 116 L 383 119 L 380 125 L 336 143 L 310 168 L 292 158 L 281 159 L 274 165 L 274 187 L 282 207 L 268 219 L 264 248 L 243 272 L 241 278 L 264 298 L 295 310 L 313 308 L 319 301 L 324 279 L 324 254 L 335 241 L 370 242 L 377 217 L 395 195 L 387 164 L 390 114 L 371 87 L 354 77 L 327 69 L 295 72 L 273 94 L 269 104 L 271 125 L 266 128 L 262 124 L 260 102 L 265 90 L 285 68"/><path d="M 1034 67 L 1049 85 L 1051 116 L 1041 132 L 1027 141 L 1012 143 L 998 189 L 977 210 L 984 245 L 1035 281 L 1067 313 L 1091 366 L 1115 361 L 1165 366 L 1189 387 L 1198 407 L 1198 461 L 1168 573 L 1144 697 L 1142 726 L 1169 955 L 1166 977 L 1163 980 L 1137 980 L 1127 965 L 1104 744 L 1023 751 L 1035 929 L 1032 932 L 1026 928 L 1013 751 L 923 753 L 920 803 L 918 1012 L 914 1015 L 886 1017 L 877 1008 L 877 750 L 854 736 L 846 746 L 829 832 L 835 900 L 854 938 L 854 961 L 829 975 L 778 980 L 777 1011 L 750 1028 L 708 1036 L 626 1036 L 618 1031 L 532 1033 L 485 1023 L 467 1008 L 467 977 L 427 975 L 392 963 L 390 939 L 411 878 L 409 854 L 416 847 L 414 810 L 392 738 L 380 748 L 367 751 L 365 1012 L 361 1017 L 335 1017 L 326 1008 L 326 751 L 234 751 L 219 926 L 213 935 L 209 931 L 224 751 L 145 743 L 120 960 L 108 980 L 85 980 L 81 976 L 78 948 L 102 729 L 66 557 L 38 466 L 36 409 L 47 385 L 72 366 L 123 361 L 144 368 L 149 373 L 146 378 L 119 370 L 74 375 L 55 389 L 45 418 L 48 468 L 74 551 L 105 693 L 122 685 L 123 681 L 63 417 L 92 388 L 133 392 L 141 397 L 138 402 L 95 397 L 72 421 L 132 682 L 159 677 L 142 645 L 137 614 L 140 547 L 157 445 L 161 435 L 156 370 L 163 342 L 177 316 L 214 279 L 230 274 L 252 250 L 259 217 L 233 194 L 223 155 L 209 143 L 204 127 L 211 81 L 233 58 L 262 50 L 296 63 L 330 60 L 347 65 L 375 79 L 399 111 L 397 166 L 404 197 L 386 220 L 380 245 L 369 253 L 338 251 L 333 257 L 333 274 L 371 286 L 391 308 L 423 414 L 465 409 L 467 394 L 481 385 L 567 395 L 572 399 L 575 427 L 572 457 L 686 457 L 688 453 L 683 404 L 697 393 L 782 388 L 793 399 L 796 415 L 811 416 L 837 311 L 864 284 L 897 271 L 900 276 L 896 280 L 868 292 L 846 314 L 821 418 L 838 422 L 860 437 L 856 393 L 864 343 L 870 340 L 873 349 L 865 396 L 870 446 L 883 458 L 974 480 L 992 416 L 997 364 L 1003 361 L 1006 364 L 1001 418 L 983 483 L 1007 495 L 1009 500 L 1002 503 L 977 490 L 878 466 L 861 449 L 837 432 L 799 424 L 776 426 L 774 436 L 803 438 L 806 445 L 771 445 L 780 484 L 759 500 L 783 499 L 795 489 L 853 499 L 860 508 L 878 513 L 885 521 L 983 558 L 1023 563 L 1029 562 L 1041 550 L 1063 464 L 1074 450 L 1082 368 L 1059 317 L 1031 289 L 976 250 L 968 213 L 952 202 L 962 175 L 962 156 L 953 147 L 914 154 L 900 147 L 868 115 L 848 112 L 841 191 L 871 241 L 902 238 L 913 247 L 918 299 L 927 307 L 944 308 L 994 284 L 1001 287 L 996 294 L 947 317 L 926 317 L 909 303 L 904 250 L 867 250 L 832 194 L 837 108 L 832 103 L 832 82 L 851 63 L 869 55 L 939 49 L 991 69 L 1011 60 L 1027 62"/><path d="M 1031 63 L 1011 60 L 991 69 L 939 49 L 869 55 L 850 63 L 832 81 L 832 103 L 837 109 L 832 194 L 866 250 L 901 248 L 904 251 L 910 305 L 925 317 L 947 317 L 998 293 L 1001 287 L 994 284 L 944 308 L 930 308 L 918 298 L 913 246 L 902 238 L 872 241 L 841 191 L 848 112 L 867 115 L 899 147 L 913 154 L 953 147 L 962 157 L 962 175 L 952 203 L 968 214 L 976 251 L 1029 288 L 1059 318 L 1082 368 L 1075 446 L 1063 464 L 1041 550 L 1027 563 L 983 558 L 885 521 L 879 513 L 861 508 L 853 499 L 794 489 L 782 499 L 760 498 L 780 485 L 771 446 L 806 446 L 804 438 L 775 436 L 775 428 L 778 425 L 799 424 L 836 432 L 860 449 L 877 466 L 977 490 L 1001 503 L 1009 501 L 1008 495 L 983 482 L 1001 418 L 1006 372 L 1004 361 L 997 364 L 992 416 L 973 480 L 883 458 L 870 445 L 865 396 L 873 349 L 871 340 L 864 342 L 856 393 L 860 436 L 838 422 L 821 417 L 846 315 L 869 292 L 898 279 L 898 271 L 892 271 L 863 284 L 838 309 L 810 416 L 795 413 L 793 398 L 783 388 L 697 393 L 683 403 L 688 453 L 686 457 L 572 457 L 575 427 L 572 398 L 567 395 L 480 385 L 468 392 L 464 409 L 424 414 L 391 307 L 372 286 L 333 273 L 333 258 L 339 251 L 369 253 L 380 246 L 385 222 L 404 198 L 397 166 L 399 110 L 376 79 L 347 65 L 330 60 L 296 63 L 262 50 L 232 58 L 212 78 L 204 127 L 209 144 L 224 158 L 233 195 L 257 216 L 259 221 L 252 249 L 229 274 L 213 279 L 178 314 L 164 339 L 156 370 L 161 435 L 157 445 L 140 547 L 137 614 L 142 645 L 158 677 L 132 681 L 72 421 L 96 397 L 138 402 L 141 399 L 140 394 L 91 388 L 63 416 L 123 681 L 107 693 L 104 689 L 74 551 L 48 468 L 45 418 L 54 391 L 75 375 L 119 370 L 147 378 L 148 370 L 123 361 L 69 367 L 47 384 L 36 409 L 38 466 L 66 557 L 102 729 L 78 948 L 82 978 L 108 980 L 120 960 L 145 743 L 224 751 L 209 931 L 213 935 L 218 932 L 234 752 L 325 751 L 326 1008 L 334 1017 L 362 1017 L 365 1012 L 367 752 L 381 748 L 391 738 L 414 810 L 416 846 L 409 853 L 411 878 L 390 939 L 391 963 L 427 975 L 466 977 L 467 1008 L 485 1023 L 532 1033 L 617 1031 L 626 1036 L 708 1036 L 750 1028 L 777 1012 L 778 980 L 829 975 L 854 962 L 854 938 L 835 900 L 829 838 L 845 750 L 853 736 L 877 751 L 877 1008 L 885 1017 L 918 1013 L 920 803 L 923 753 L 1013 752 L 1026 928 L 1033 932 L 1035 913 L 1023 751 L 1102 743 L 1105 751 L 1127 965 L 1134 979 L 1165 979 L 1169 955 L 1142 726 L 1144 697 L 1168 573 L 1198 461 L 1198 407 L 1189 386 L 1165 366 L 1124 361 L 1092 366 L 1067 312 L 1036 281 L 984 244 L 977 211 L 998 190 L 1012 143 L 1028 141 L 1042 132 L 1051 116 L 1049 85"/>
</g></svg>