<svg xmlns="http://www.w3.org/2000/svg" viewBox="0 0 800 560" fill="none">
  <g stroke="#0F3F3B" stroke-width="5" stroke-linecap="round" stroke-linejoin="round">
    <circle cx="405" cy="112" r="34"/>
    <path d="M378 98c10-18 46-24 63-8 9 8 8 20-1 28-8 7-12 15-14 22"/>
    <path d="M388 148c6 10 14 15 17 15s11-5 17-15"/>
    <path d="M330 190c26-24 52-34 75-34s49 10 75 34"/>
    <path d="M332 190c-18 32-23 78-16 126"/>
    <path d="M478 190c18 32 23 78 16 126"/>
    <path d="M332 190c20 16 44 24 73 24s53-8 73-24"/>
    <path d="M326 316c28 8 54 12 79 12s51-4 79-12"/>
    <path d="M340 328c10 48 13 96 8 144"/>
    <path d="M470 328c-10 48-13 96-8 144"/>
    <path d="M346 224c-40 20-66 42-84 70"/>
    <path d="M262 294c-12 20-14 42-8 64"/>
    <path d="M464 224c30 18 54 36 71 56"/>
    <path d="M535 280c12 16 18 33 18 54"/>
    <path d="M245 360c10 10 24 13 40 11"/>
    <path d="M530 336c8 10 20 15 34 15"/>
    <path d="M168 292l54-46 34 32-53 46"/>
    <path d="M128 330l40-38"/>
    <path d="M250 246l38 38"/>
    <path d="M288 284l26-6 22 22-8 24"/>
    <path d="M184 346v56"/>
    <path d="M160 402h52"/>
    <path d="M360 472c-22 20-44 35-66 45"/>
    <path d="M450 472c20 18 41 33 64 45"/>
    <path d="M278 517c25 8 52 6 74-10"/>
    <path d="M448 507c23 16 49 20 74 12"/>
  </g>
</svg>
