<svg xmlns="http://www.w3.org/2000/svg" viewBox="0 0 860 560" fill="none">
  <g stroke="#3B2418" stroke-width="5" stroke-linecap="round" stroke-linejoin="round">
    <circle cx="560" cy="118" r="30"/>
    <path d="M538 104c8-14 38-18 53-6 8 7 8 16 0 23-7 6-11 12-12 18"/>
    <path d="M505 176c20-18 39-26 55-26 17 0 36 8 57 26"/>
    <path d="M505 176c-10 28-8 68 8 108"/>
    <path d="M617 176c16 28 20 61 14 106"/>
    <path d="M520 288c16 6 30 8 42 8s28-2 47-8"/>
    <path d="M522 220c-26 12-52 34-78 66"/>
    <path d="M444 286c-10 14-18 29-23 45"/>
    <path d="M602 220c14 18 27 39 39 63"/>
    <path d="M445 331c14 8 30 9 46 3"/>
    <path d="M641 283c5 16 6 32 3 49"/>
    <path d="M534 296c-10 56-3 108 20 160"/>
    <path d="M599 296c18 46 32 98 43 154"/>
    <path d="M548 456c-20 28-39 49-58 64"/>
    <path d="M646 450c14 28 30 49 48 65"/>
    <path d="M476 522c26 10 53 7 76-11"/>
    <path d="M684 524c24 4 46-1 62-14"/>
    <circle cx="318" cy="208" r="28"/>
    <path d="M296 196c8-12 35-16 48-5 7 6 7 14 0 20-6 5-9 10-10 16"/>
    <path d="M270 252c18-16 35-23 49-23 15 0 31 7 48 23"/>
    <path d="M270 252c-18 24-26 53-25 88"/>
    <path d="M367 252c15 22 25 51 28 85"/>
    <path d="M247 340c18 16 40 25 63 25s47-9 71-26"/>
    <path d="M270 365c-22 28-39 62-51 103"/>
    <path d="M349 365c8 36 24 70 48 104"/>
    <path d="M205 468c28 9 56 6 79-10"/>
    <path d="M394 469c24 8 48 5 68-8"/>
    <path d="M272 284c-24 12-48 24-73 36"/>
    <path d="M366 284c26 13 52 25 80 37"/>
    <path d="M198 320c12 11 28 13 42 6"/>
    <path d="M446 321c-12 10-27 12-42 6"/>
    <path d="M168 308v28"/>
    <path d="M182 304v36"/>
    <path d="M456 307v28"/>
    <path d="M470 303v36"/>
    <path d="M150 322h50"/>
    <path d="M438 321h50"/>
    <path d="M160 540h560"/>
  </g>
</svg>
