<svg xmlns="http://www.w3.org/2000/svg" width="720" height="520" viewBox="0 0 720 520" role="img" aria-label="Illustrasjon av treningsrom">
  <rect width="720" height="520" rx="64" fill="#111214"/>
  <rect x="58" y="62" width="604" height="396" rx="42" fill="#202226"/>
  <circle cx="202" cy="188" r="78" fill="#f97316"/>
  <rect x="170" y="282" width="70" height="116" rx="35" fill="#f8f3ed"/>
  <rect x="104" y="324" width="202" height="34" rx="17" fill="#f8f3ed"/>
  <circle cx="86" cy="341" r="38" fill="#0f172a"/>
  <circle cx="324" cy="341" r="38" fill="#0f172a"/>
  <path d="M410 146h146c26 0 47 21 47 47v150c0 26-21 47-47 47H410c-26 0-47-21-47-47V193c0-26 21-47 47-47Z" fill="#f8f3ed"/>
  <path d="M415 224h136M415 266h110M415 308h82" stroke="#111214" stroke-width="18" stroke-linecap="round"/>
  <path d="M96 92h126M96 126h86" stroke="#f8f3ed" stroke-width="18" stroke-linecap="round" opacity=".78"/>
</svg>
